{
    "asset" : {
        "generator" : "Khronos glTF Blender I/O v1.7.33",
        "version" : "2.0"
    },
    "scene" : 0,
    "scenes" : [
        {
            "name" : "Scene",
            "nodes" : [
                12
            ]
        }
    ],
    "nodes" : [
        {
            "name" : "Bone.005",
            "rotation" : [
                -0.02012496069073677,
                -8.295224951382352e-09,
                -3.855300789723515e-08,
                0.9997974634170532
            ],
            "scale" : [
                1,
                1.0000001192092896,
                1.0000001192092896
            ],
            "translation" : [
                7.316962790868131e-13,
                0.5293709635734558,
                -5.1372442300134935e-08
            ]
        },
        {
            "children" : [
                0
            ],
            "name" : "Bone.004",
            "rotation" : [
                0.22734664380550385,
                -1.209114142142198e-08,
                4.4023167333762103e-07,
                0.9738138914108276
            ],
            "scale" : [
                1,
                0.9999997019767761,
                0.9999998807907104
            ],
            "translation" : [
                -1.44803873752819e-13,
                0.8794001340866089,
                1.666729332328032e-07
            ]
        },
        {
            "children" : [
                1
            ],
            "name" : "Bone.003",
            "rotation" : [
                0.46578145027160645,
                9.640241493968915e-09,
                9.026431939673785e-07,
                0.8848997950553894
            ],
            "scale" : [
                1,
                1.0000003576278687,
                1.000000238418579
            ],
            "translation" : [
                -1.6905368164371604e-13,
                1.5924991369247437,
                -3.216314325982239e-09
            ]
        },
        {
            "children" : [
                2
            ],
            "name" : "Bone.002",
            "rotation" : [
                0.07103615999221802,
                9.313337159255752e-07,
                7.056210193923107e-08,
                0.9974738359451294
            ],
            "scale" : [
                1,
                0.9999999403953552,
                0.9999999403953552
            ],
            "translation" : [
                -2.156224959866393e-13,
                1.996509313583374,
                9.552471169627097e-08
            ]
        },
        {
            "children" : [
                3
            ],
            "name" : "Bone.001",
            "rotation" : [
                0.7124432325363159,
                1.560796114574714e-08,
                2.6639435546371715e-08,
                0.7017298340797424
            ],
            "scale" : [
                1,
                0.9999999403953552,
                0.9999999403953552
            ],
            "translation" : [
                7.591965166322085e-23,
                1.000000238418579,
                0
            ]
        },
        {
            "children" : [
                4
            ],
            "name" : "Bone",
            "rotation" : [
                6.339203650895797e-08,
                7.574776361707336e-09,
                5.088690720462098e-16,
                1
            ]
        },
        {
            "mesh" : 0,
            "name" : "chan de 2 v1",
            "skin" : 0
        },
        {
            "mesh" : 1,
            "name" : "chan de v1",
            "skin" : 0
        },
        {
            "mesh" : 2,
            "name" : "khop 3 v2",
            "skin" : 0
        },
        {
            "mesh" : 3,
            "name" : "khop 4 v3",
            "skin" : 0
        },
        {
            "mesh" : 4,
            "name" : "khop 5 v2",
            "skin" : 0
        },
        {
            "mesh" : 5,
            "name" : "khop 6 v1",
            "skin" : 0
        },
        {
            "children" : [
                6,
                7,
                8,
                9,
                10,
                11,
                5
            ],
            "name" : "Armature",
            "rotation" : [
                -0.7071068286895752,
                0,
                0,
                0.7071068286895752
            ],
            "translation" : [
                0,
                -0.0068514347076416016,
                1.0167713165283203
            ]
        }
    ],
    "materials" : [
        {
            "doubleSided" : true,
            "name" : "Steel_-_Satin.031",
            "pbrMetallicRoughness" : {
                "baseColorFactor" : [
                    0.800000011920929,
                    0.800000011920929,
                    0.800000011920929,
                    1
                ],
                "metallicFactor" : 0,
                "roughnessFactor" : 0.5
            }
        },
        {
            "doubleSided" : true,
            "name" : "Steel_-_Satin.032",
            "pbrMetallicRoughness" : {
                "baseColorFactor" : [
                    0.800000011920929,
                    0.800000011920929,
                    0.800000011920929,
                    1
                ],
                "metallicFactor" : 0,
                "roughnessFactor" : 0.5
            }
        },
        {
            "doubleSided" : true,
            "name" : "Steel_-_Satin.033",
            "pbrMetallicRoughness" : {
                "baseColorFactor" : [
                    0.800000011920929,
                    0.800000011920929,
                    0.800000011920929,
                    1
                ],
                "metallicFactor" : 0,
                "roughnessFactor" : 0.5
            }
        },
        {
            "doubleSided" : true,
            "name" : "Steel_-_Satin.034",
            "pbrMetallicRoughness" : {
                "baseColorFactor" : [
                    0.800000011920929,
                    0.800000011920929,
                    0.800000011920929,
                    1
                ],
                "metallicFactor" : 0,
                "roughnessFactor" : 0.5
            }
        },
        {
            "doubleSided" : true,
            "name" : "Steel_-_Satin.035",
            "pbrMetallicRoughness" : {
                "baseColorFactor" : [
                    0.800000011920929,
                    0.800000011920929,
                    0.800000011920929,
                    1
                ],
                "metallicFactor" : 0,
                "roughnessFactor" : 0.5
            }
        },
        {
            "doubleSided" : true,
            "name" : "Steel_-_Satin.036",
            "pbrMetallicRoughness" : {
                "baseColorFactor" : [
                    0.800000011920929,
                    0.800000011920929,
                    0.800000011920929,
                    1
                ],
                "metallicFactor" : 0,
                "roughnessFactor" : 0.5
            }
        }
    ],
    "meshes" : [
        {
            "name" : "chan de 2 v1.005",
            "primitives" : [
                {
                    "attributes" : {
                        "POSITION" : 0,
                        "NORMAL" : 1,
                        "TEXCOORD_0" : 2,
                        "JOINTS_0" : 3,
                        "WEIGHTS_0" : 4
                    },
                    "indices" : 5,
                    "material" : 0
                }
            ]
        },
        {
            "name" : "chan de v1.005",
            "primitives" : [
                {
                    "attributes" : {
                        "POSITION" : 7,
                        "NORMAL" : 8,
                        "TEXCOORD_0" : 9,
                        "JOINTS_0" : 10,
                        "WEIGHTS_0" : 11
                    },
                    "indices" : 12,
                    "material" : 1
                }
            ]
        },
        {
            "name" : "khop 3 v2.005",
            "primitives" : [
                {
                    "attributes" : {
                        "POSITION" : 13,
                        "NORMAL" : 14,
                        "TEXCOORD_0" : 15,
                        "JOINTS_0" : 16,
                        "WEIGHTS_0" : 17
                    },
                    "indices" : 18,
                    "material" : 2
                }
            ]
        },
        {
            "name" : "khop 4 v3.005",
            "primitives" : [
                {
                    "attributes" : {
                        "POSITION" : 19,
                        "NORMAL" : 20,
                        "TEXCOORD_0" : 21,
                        "JOINTS_0" : 22,
                        "WEIGHTS_0" : 23
                    },
                    "indices" : 24,
                    "material" : 3
                }
            ]
        },
        {
            "name" : "khop 5 v2.005",
            "primitives" : [
                {
                    "attributes" : {
                        "POSITION" : 25,
                        "NORMAL" : 26,
                        "TEXCOORD_0" : 27,
                        "JOINTS_0" : 28,
                        "WEIGHTS_0" : 29
                    },
                    "indices" : 30,
                    "material" : 4
                }
            ]
        },
        {
            "name" : "khop 6 v1.005",
            "primitives" : [
                {
                    "attributes" : {
                        "POSITION" : 31,
                        "NORMAL" : 32,
                        "TEXCOORD_0" : 33,
                        "JOINTS_0" : 34,
                        "WEIGHTS_0" : 35
                    },
                    "indices" : 36,
                    "material" : 5
                }
            ]
        }
    ],
    "skins" : [
        {
            "inverseBindMatrices" : 6,
            "joints" : [
                5,
                4,
                3,
                2,
                1,
                0
            ],
            "name" : "Armature"
        }
    ],
    "accessors" : [
        {
            "bufferView" : 0,
            "componentType" : 5126,
            "count" : 1677,
            "max" : [
                0.8999999761581421,
                2.500000238418579,
                0.747404932975769
            ],
            "min" : [
                -0.8999999761581421,
                0.2999999225139618,
                -0.6474053263664246
            ],
            "type" : "VEC3"
        },
        {
            "bufferView" : 1,
            "componentType" : 5126,
            "count" : 1677,
            "type" : "VEC3"
        },
        {
            "bufferView" : 2,
            "componentType" : 5126,
            "count" : 1677,
            "type" : "VEC2"
        },
        {
            "bufferView" : 3,
            "componentType" : 5121,
            "count" : 1677,
            "type" : "VEC4"
        },
        {
            "bufferView" : 4,
            "componentType" : 5126,
            "count" : 1677,
            "type" : "VEC4"
        },
        {
            "bufferView" : 5,
            "componentType" : 5123,
            "count" : 4152,
            "type" : "SCALAR"
        },
        {
            "bufferView" : 6,
            "componentType" : 5126,
            "count" : 6,
            "type" : "MAT4"
        },
        {
            "bufferView" : 7,
            "componentType" : 5126,
            "count" : 2419,
            "max" : [
                0.800000011920929,
                1.3000000715255737,
                0.800000011920929
            ],
            "min" : [
                -0.6999999284744263,
                -1.548751953350802e-07,
                -0.7000001668930054
            ],
            "type" : "VEC3"
        },
        {
            "bufferView" : 8,
            "componentType" : 5126,
            "count" : 2419,
            "type" : "VEC3"
        },
        {
            "bufferView" : 9,
            "componentType" : 5126,
            "count" : 2419,
            "type" : "VEC2"
        },
        {
            "bufferView" : 10,
            "componentType" : 5121,
            "count" : 2419,
            "type" : "VEC4"
        },
        {
            "bufferView" : 11,
            "componentType" : 5126,
            "count" : 2419,
            "type" : "VEC4"
        },
        {
            "bufferView" : 12,
            "componentType" : 5123,
            "count" : 5502,
            "type" : "SCALAR"
        },
        {
            "bufferView" : 13,
            "componentType" : 5126,
            "count" : 1601,
            "max" : [
                0.9549999833106995,
                4.093447208404541,
                0.8206859230995178
            ],
            "min" : [
                -0.9449999928474426,
                1.5,
                -0.45000025629997253
            ],
            "type" : "VEC3"
        },
        {
            "bufferView" : 14,
            "componentType" : 5126,
            "count" : 1601,
            "type" : "VEC3"
        },
        {
            "bufferView" : 15,
            "componentType" : 5126,
            "count" : 1601,
            "type" : "VEC2"
        },
        {
            "bufferView" : 16,
            "componentType" : 5121,
            "count" : 1601,
            "type" : "VEC4"
        },
        {
            "bufferView" : 17,
            "componentType" : 5126,
            "count" : 1601,
            "type" : "VEC4"
        },
        {
            "bufferView" : 18,
            "componentType" : 5123,
            "count" : 2694,
            "type" : "SCALAR"
        },
        {
            "bufferView" : 19,
            "componentType" : 5126,
            "count" : 1463,
            "max" : [
                0.6969999670982361,
                4.225000381469727,
                1.161778450012207
            ],
            "min" : [
                -0.6930000185966492,
                3.02500057220459,
                -0.050000280141830444
            ],
            "type" : "VEC3"
        },
        {
            "bufferView" : 20,
            "componentType" : 5126,
            "count" : 1463,
            "type" : "VEC3"
        },
        {
            "bufferView" : 21,
            "componentType" : 5126,
            "count" : 1463,
            "type" : "VEC2"
        },
        {
            "bufferView" : 22,
            "componentType" : 5121,
            "count" : 1463,
            "type" : "VEC4"
        },
        {
            "bufferView" : 23,
            "componentType" : 5126,
            "count" : 1463,
            "type" : "VEC4"
        },
        {
            "bufferView" : 24,
            "componentType" : 5123,
            "count" : 3288,
            "type" : "SCALAR"
        },
        {
            "bufferView" : 25,
            "componentType" : 5126,
            "count" : 1121,
            "max" : [
                0.42499998211860657,
                4.15000057220459,
                1.8125001192092896
            ],
            "min" : [
                -0.42499998211860657,
                3.7200002670288086,
                0.9624997973442078
            ],
            "type" : "VEC3"
        },
        {
            "bufferView" : 26,
            "componentType" : 5126,
            "count" : 1121,
            "type" : "VEC3"
        },
        {
            "bufferView" : 27,
            "componentType" : 5126,
            "count" : 1121,
            "type" : "VEC2"
        },
        {
            "bufferView" : 28,
            "componentType" : 5121,
            "count" : 1121,
            "type" : "VEC4"
        },
        {
            "bufferView" : 29,
            "componentType" : 5126,
            "count" : 1121,
            "type" : "VEC4"
        },
        {
            "bufferView" : 30,
            "componentType" : 5123,
            "count" : 2220,
            "type" : "SCALAR"
        },
        {
            "bufferView" : 31,
            "componentType" : 5126,
            "count" : 547,
            "max" : [
                0.22499999403953552,
                4.159017086029053,
                2.2149999141693115
            ],
            "min" : [
                -0.22499999403953552,
                3.7090163230895996,
                1.4149997234344482
            ],
            "type" : "VEC3"
        },
        {
            "bufferView" : 32,
            "componentType" : 5126,
            "count" : 547,
            "type" : "VEC3"
        },
        {
            "bufferView" : 33,
            "componentType" : 5126,
            "count" : 547,
            "type" : "VEC2"
        },
        {
            "bufferView" : 34,
            "componentType" : 5121,
            "count" : 547,
            "type" : "VEC4"
        },
        {
            "bufferView" : 35,
            "componentType" : 5126,
            "count" : 547,
            "type" : "VEC4"
        },
        {
            "bufferView" : 36,
            "componentType" : 5123,
            "count" : 1074,
            "type" : "SCALAR"
        }
    ],
    "bufferViews" : [
        {
            "buffer" : 0,
            "byteLength" : 20124,
            "byteOffset" : 0
        },
        {
            "buffer" : 0,
            "byteLength" : 20124,
            "byteOffset" : 20124
        },
        {
            "buffer" : 0,
            "byteLength" : 13416,
            "byteOffset" : 40248
        },
        {
            "buffer" : 0,
            "byteLength" : 6708,
            "byteOffset" : 53664
        },
        {
            "buffer" : 0,
            "byteLength" : 26832,
            "byteOffset" : 60372
        },
        {
            "buffer" : 0,
            "byteLength" : 8304,
            "byteOffset" : 87204
        },
        {
            "buffer" : 0,
            "byteLength" : 384,
            "byteOffset" : 95508
        },
        {
            "buffer" : 0,
            "byteLength" : 29028,
            "byteOffset" : 95892
        },
        {
            "buffer" : 0,
            "byteLength" : 29028,
            "byteOffset" : 124920
        },
        {
            "buffer" : 0,
            "byteLength" : 19352,
            "byteOffset" : 153948
        },
        {
            "buffer" : 0,
            "byteLength" : 9676,
            "byteOffset" : 173300
        },
        {
            "buffer" : 0,
            "byteLength" : 38704,
            "byteOffset" : 182976
        },
        {
            "buffer" : 0,
            "byteLength" : 11004,
            "byteOffset" : 221680
        },
        {
            "buffer" : 0,
            "byteLength" : 19212,
            "byteOffset" : 232684
        },
        {
            "buffer" : 0,
            "byteLength" : 19212,
            "byteOffset" : 251896
        },
        {
            "buffer" : 0,
            "byteLength" : 12808,
            "byteOffset" : 271108
        },
        {
            "buffer" : 0,
            "byteLength" : 6404,
            "byteOffset" : 283916
        },
        {
            "buffer" : 0,
            "byteLength" : 25616,
            "byteOffset" : 290320
        },
        {
            "buffer" : 0,
            "byteLength" : 5388,
            "byteOffset" : 315936
        },
        {
            "buffer" : 0,
            "byteLength" : 17556,
            "byteOffset" : 321324
        },
        {
            "buffer" : 0,
            "byteLength" : 17556,
            "byteOffset" : 338880
        },
        {
            "buffer" : 0,
            "byteLength" : 11704,
            "byteOffset" : 356436
        },
        {
            "buffer" : 0,
            "byteLength" : 5852,
            "byteOffset" : 368140
        },
        {
            "buffer" : 0,
            "byteLength" : 23408,
            "byteOffset" : 373992
        },
        {
            "buffer" : 0,
            "byteLength" : 6576,
            "byteOffset" : 397400
        },
        {
            "buffer" : 0,
            "byteLength" : 13452,
            "byteOffset" : 403976
        },
        {
            "buffer" : 0,
            "byteLength" : 13452,
            "byteOffset" : 417428
        },
        {
            "buffer" : 0,
            "byteLength" : 8968,
            "byteOffset" : 430880
        },
        {
            "buffer" : 0,
            "byteLength" : 4484,
            "byteOffset" : 439848
        },
        {
            "buffer" : 0,
            "byteLength" : 17936,
            "byteOffset" : 444332
        },
        {
            "buffer" : 0,
            "byteLength" : 4440,
            "byteOffset" : 462268
        },
        {
            "buffer" : 0,
            "byteLength" : 6564,
            "byteOffset" : 466708
        },
        {
            "buffer" : 0,
            "byteLength" : 6564,
            "byteOffset" : 473272
        },
        {
            "buffer" : 0,
            "byteLength" : 4376,
            "byteOffset" : 479836
        },
        {
            "buffer" : 0,
            "byteLength" : 2188,
            "byteOffset" : 484212
        },
        {
            "buffer" : 0,
            "byteLength" : 8752,
            "byteOffset" : 486400
        },
        {
            "buffer" : 0,
            "byteLength" : 2148,
            "byteOffset" : 495152
        }
    ],
    "buffers" : [
        {
            "byteLength" : 497300,
            "uri" : "data:application/octet-stream;base64,"
        }
    ]
}
