{
    "asset" : {
        "generator" : "Khronos glTF Blender I/O v1.7.33",
        "version" : "2.0"
    },
    "scene" : 0,
    "scenes" : [
        {
            "name" : "Scene",
            "nodes" : [
                12
            ]
        }
    ],
    "nodes" : [
        {
            "name" : "Bone.005",
            "rotation" : [
                -0.005498956888914108,
                -1.4031650508172788e-08,
                -1.3892071937249284e-09,
                0.9999849796295166
            ],
            "scale" : [
                1,
                1.0000001192092896,
                0.9999999403953552
            ],
            "translation" : [
                -8.622059500824203e-14,
                0.3622705042362213,
                1.5732715041849588e-07
            ]
        },
        {
            "children" : [
                0
            ],
            "name" : "Bone.004",
            "rotation" : [
                0.19362248480319977,
                -5.6407849058359716e-08,
                6.276459174614502e-08,
                0.9810761213302612
            ],
            "scale" : [
                1,
                1.0000001192092896,
                0.9999999403953552
            ],
            "translation" : [
                -1.9803521886588293e-13,
                0.6463767886161804,
                2.384185791015625e-07
            ]
        },
        {
            "children" : [
                1
            ],
            "name" : "Bone.003",
            "rotation" : [
                0.4834602177143097,
                -2.4714398705327767e-07,
                3.210117256458034e-07,
                0.8753663301467896
            ],
            "scale" : [
                1,
                1.000000238418579,
                1.0000001192092896
            ],
            "translation" : [
                1.1213110247178942e-13,
                1.1119569540023804,
                -1.4817084093010635e-07
            ]
        },
        {
            "children" : [
                2
            ],
            "name" : "Bone.002",
            "rotation" : [
                0.07766753435134888,
                6.658496545242087e-07,
                2.1626741286695506e-08,
                0.9969794154167175
            ],
            "scale" : [
                1,
                0.9999999403953552,
                1
            ],
            "translation" : [
                1.4346378631509976e-13,
                1.4251348972320557,
                1.8460989181789955e-08
            ]
        },
        {
            "children" : [
                3
            ],
            "name" : "Bone.001",
            "rotation" : [
                0.70710688829422,
                -1.506599005551834e-07,
                -1.2469762111777527e-07,
                0.7071066498756409
            ],
            "scale" : [
                1,
                0.9999998807907104,
                0.9999998807907104
            ],
            "translation" : [
                4.644829171892434e-14,
                1.000000238418579,
                4.26325675337378e-14
            ]
        },
        {
            "children" : [
                4
            ],
            "name" : "Bone",
            "rotation" : [
                6.339203650895797e-08,
                7.574776361707336e-09,
                5.088690720462098e-16,
                1
            ]
        },
        {
            "mesh" : 0,
            "name" : "chan de 2 v1",
            "skin" : 0
        },
        {
            "mesh" : 1,
            "name" : "chan de v1",
            "skin" : 0
        },
        {
            "mesh" : 2,
            "name" : "khop 3 v2",
            "skin" : 0
        },
        {
            "mesh" : 3,
            "name" : "khop 4 v3",
            "skin" : 0
        },
        {
            "mesh" : 4,
            "name" : "khop 5 v2",
            "skin" : 0
        },
        {
            "mesh" : 5,
            "name" : "khop 6 v1",
            "skin" : 0
        },
        {
            "children" : [
                6,
                7,
                8,
                9,
                10,
                11,
                5
            ],
            "name" : "Armature",
            "rotation" : [
                -0.7071068286895752,
                0,
                0,
                0.7071068286895752
            ],
            "scale" : [
                707.2588500976562,
                707.2588500976562,
                707.2588500976562
            ],
            "translation" : [
                0,
                -0.29273223876953125,
                706.3329467773438
            ]
        }
    ],
    "materials" : [
        {
            "doubleSided" : true,
            "name" : "Steel_-_Satin.013",
            "pbrMetallicRoughness" : {
                "baseColorFactor" : [
                    0.800000011920929,
                    0.800000011920929,
                    0.800000011920929,
                    1
                ],
                "metallicFactor" : 0,
                "roughnessFactor" : 0.5
            }
        },
        {
            "doubleSided" : true,
            "name" : "Steel_-_Satin.014",
            "pbrMetallicRoughness" : {
                "baseColorFactor" : [
                    0.800000011920929,
                    0.800000011920929,
                    0.800000011920929,
                    1
                ],
                "metallicFactor" : 0,
                "roughnessFactor" : 0.5
            }
        },
        {
            "doubleSided" : true,
            "name" : "Steel_-_Satin.015",
            "pbrMetallicRoughness" : {
                "baseColorFactor" : [
                    0.800000011920929,
                    0.800000011920929,
                    0.800000011920929,
                    1
                ],
                "metallicFactor" : 0,
                "roughnessFactor" : 0.5
            }
        },
        {
            "doubleSided" : true,
            "name" : "Steel_-_Satin.016",
            "pbrMetallicRoughness" : {
                "baseColorFactor" : [
                    0.800000011920929,
                    0.800000011920929,
                    0.800000011920929,
                    1
                ],
                "metallicFactor" : 0,
                "roughnessFactor" : 0.5
            }
        },
        {
            "doubleSided" : true,
            "name" : "Steel_-_Satin.017",
            "pbrMetallicRoughness" : {
                "baseColorFactor" : [
                    0.800000011920929,
                    0.800000011920929,
                    0.800000011920929,
                    1
                ],
                "metallicFactor" : 0,
                "roughnessFactor" : 0.5
            }
        },
        {
            "doubleSided" : true,
            "name" : "Steel_-_Satin.018",
            "pbrMetallicRoughness" : {
                "baseColorFactor" : [
                    0.800000011920929,
                    0.800000011920929,
                    0.800000011920929,
                    1
                ],
                "metallicFactor" : 0,
                "roughnessFactor" : 0.5
            }
        }
    ],
    "meshes" : [
        {
            "name" : "chan de 2 v1.002",
            "primitives" : [
                {
                    "attributes" : {
                        "POSITION" : 0,
                        "NORMAL" : 1,
                        "TEXCOORD_0" : 2,
                        "JOINTS_0" : 3,
                        "WEIGHTS_0" : 4
                    },
                    "indices" : 5,
                    "material" : 0
                }
            ]
        },
        {
            "name" : "chan de v1.002",
            "primitives" : [
                {
                    "attributes" : {
                        "POSITION" : 7,
                        "NORMAL" : 8,
                        "TEXCOORD_0" : 9,
                        "JOINTS_0" : 10,
                        "WEIGHTS_0" : 11
                    },
                    "indices" : 12,
                    "material" : 1
                }
            ]
        },
        {
            "name" : "khop 3 v2.002",
            "primitives" : [
                {
                    "attributes" : {
                        "POSITION" : 13,
                        "NORMAL" : 14,
                        "TEXCOORD_0" : 15,
                        "JOINTS_0" : 16,
                        "WEIGHTS_0" : 17
                    },
                    "indices" : 18,
                    "material" : 2
                }
            ]
        },
        {
            "name" : "khop 4 v3.002",
            "primitives" : [
                {
                    "attributes" : {
                        "POSITION" : 19,
                        "NORMAL" : 20,
                        "TEXCOORD_0" : 21,
                        "JOINTS_0" : 22,
                        "WEIGHTS_0" : 23
                    },
                    "indices" : 24,
                    "material" : 3
                }
            ]
        },
        {
            "name" : "khop 5 v2.002",
            "primitives" : [
                {
                    "attributes" : {
                        "POSITION" : 25,
                        "NORMAL" : 26,
                        "TEXCOORD_0" : 27,
                        "JOINTS_0" : 28,
                        "WEIGHTS_0" : 29
                    },
                    "indices" : 30,
                    "material" : 4
                }
            ]
        },
        {
            "name" : "khop 6 v1.002",
            "primitives" : [
                {
                    "attributes" : {
                        "POSITION" : 31,
                        "NORMAL" : 32,
                        "TEXCOORD_0" : 33,
                        "JOINTS_0" : 34,
                        "WEIGHTS_0" : 35
                    },
                    "indices" : 36,
                    "material" : 5
                }
            ]
        }
    ],
    "skins" : [
        {
            "inverseBindMatrices" : 6,
            "joints" : [
                5,
                4,
                3,
                2,
                1,
                0
            ],
            "name" : "Armature"
        }
    ],
    "accessors" : [
        {
            "bufferView" : 0,
            "componentType" : 5126,
            "count" : 1795,
            "max" : [
                450.78118896484375,
                1255.000244140625,
                345.0364990234375
            ],
            "min" : [
                -449.2188720703125,
                154.99993896484375,
                -352.36871337890625
            ],
            "type" : "VEC3"
        },
        {
            "bufferView" : 1,
            "componentType" : 5126,
            "count" : 1795,
            "type" : "VEC3"
        },
        {
            "bufferView" : 2,
            "componentType" : 5126,
            "count" : 1795,
            "type" : "VEC2"
        },
        {
            "bufferView" : 3,
            "componentType" : 5121,
            "count" : 1795,
            "type" : "VEC4"
        },
        {
            "bufferView" : 4,
            "componentType" : 5126,
            "count" : 1795,
            "type" : "VEC4"
        },
        {
            "bufferView" : 5,
            "componentType" : 5123,
            "count" : 4152,
            "type" : "SCALAR"
        },
        {
            "bufferView" : 6,
            "componentType" : 5126,
            "count" : 6,
            "type" : "MAT4"
        },
        {
            "bufferView" : 7,
            "componentType" : 5126,
            "count" : 2418,
            "max" : [
                380.7811279296875,
                650,
                369.7978820800781
            ],
            "min" : [
                -369.21881103515625,
                -9.853215306065977e-05,
                -380.20208740234375
            ],
            "type" : "VEC3"
        },
        {
            "bufferView" : 8,
            "componentType" : 5126,
            "count" : 2418,
            "type" : "VEC3"
        },
        {
            "bufferView" : 9,
            "componentType" : 5126,
            "count" : 2418,
            "type" : "VEC2"
        },
        {
            "bufferView" : 10,
            "componentType" : 5121,
            "count" : 2418,
            "type" : "VEC4"
        },
        {
            "bufferView" : 11,
            "componentType" : 5126,
            "count" : 2418,
            "type" : "VEC4"
        },
        {
            "bufferView" : 12,
            "componentType" : 5123,
            "count" : 5502,
            "type" : "SCALAR"
        },
        {
            "bufferView" : 13,
            "componentType" : 5126,
            "count" : 1539,
            "max" : [
                477.7811584472656,
                2046.72412109375,
                381.0143127441406
            ],
            "min" : [
                -472.2188415527344,
                750.0001220703125,
                -254.22885131835938
            ],
            "type" : "VEC3"
        },
        {
            "bufferView" : 14,
            "componentType" : 5126,
            "count" : 1539,
            "type" : "VEC3"
        },
        {
            "bufferView" : 15,
            "componentType" : 5126,
            "count" : 1539,
            "type" : "VEC2"
        },
        {
            "bufferView" : 16,
            "componentType" : 5121,
            "count" : 1539,
            "type" : "VEC4"
        },
        {
            "bufferView" : 17,
            "componentType" : 5126,
            "count" : 1539,
            "type" : "VEC4"
        },
        {
            "bufferView" : 18,
            "componentType" : 5123,
            "count" : 2694,
            "type" : "SCALAR"
        },
        {
            "bufferView" : 19,
            "componentType" : 5126,
            "count" : 1457,
            "max" : [
                347.7811584472656,
                2115.053955078125,
                570.5787353515625
            ],
            "min" : [
                -347.2188415527344,
                1515.0538330078125,
                -35.310630798339844
            ],
            "type" : "VEC3"
        },
        {
            "bufferView" : 20,
            "componentType" : 5126,
            "count" : 1457,
            "type" : "VEC3"
        },
        {
            "bufferView" : 21,
            "componentType" : 5126,
            "count" : 1457,
            "type" : "VEC2"
        },
        {
            "bufferView" : 22,
            "componentType" : 5121,
            "count" : 1457,
            "type" : "VEC4"
        },
        {
            "bufferView" : 23,
            "componentType" : 5126,
            "count" : 1457,
            "type" : "VEC4"
        },
        {
            "bufferView" : 24,
            "componentType" : 5123,
            "count" : 3288,
            "type" : "SCALAR"
        },
        {
            "bufferView" : 25,
            "componentType" : 5126,
            "count" : 1112,
            "max" : [
                215.78115844726562,
                2077.463134765625,
                896.334228515625
            ],
            "min" : [
                -209.21884155273438,
                1862.462890625,
                471.33404541015625
            ],
            "type" : "VEC3"
        },
        {
            "bufferView" : 26,
            "componentType" : 5126,
            "count" : 1112,
            "type" : "VEC3"
        },
        {
            "bufferView" : 27,
            "componentType" : 5126,
            "count" : 1112,
            "type" : "VEC2"
        },
        {
            "bufferView" : 28,
            "componentType" : 5121,
            "count" : 1112,
            "type" : "VEC4"
        },
        {
            "bufferView" : 29,
            "componentType" : 5126,
            "count" : 1112,
            "type" : "VEC4"
        },
        {
            "bufferView" : 30,
            "componentType" : 5123,
            "count" : 2220,
            "type" : "SCALAR"
        },
        {
            "bufferView" : 31,
            "componentType" : 5126,
            "count" : 514,
            "max" : [
                115.78117370605469,
                2082.330322265625,
                1096.334228515625
            ],
            "min" : [
                -109.21884155273438,
                1857.3299560546875,
                696.3340454101562
            ],
            "type" : "VEC3"
        },
        {
            "bufferView" : 32,
            "componentType" : 5126,
            "count" : 514,
            "type" : "VEC3"
        },
        {
            "bufferView" : 33,
            "componentType" : 5126,
            "count" : 514,
            "type" : "VEC2"
        },
        {
            "bufferView" : 34,
            "componentType" : 5121,
            "count" : 514,
            "type" : "VEC4"
        },
        {
            "bufferView" : 35,
            "componentType" : 5126,
            "count" : 514,
            "type" : "VEC4"
        },
        {
            "bufferView" : 36,
            "componentType" : 5123,
            "count" : 1074,
            "type" : "SCALAR"
        }
    ],
    "bufferViews" : [
        {
            "buffer" : 0,
            "byteLength" : 21540,
            "byteOffset" : 0
        },
        {
            "buffer" : 0,
            "byteLength" : 21540,
            "byteOffset" : 21540
        },
        {
            "buffer" : 0,
            "byteLength" : 14360,
            "byteOffset" : 43080
        },
        {
            "buffer" : 0,
            "byteLength" : 7180,
            "byteOffset" : 57440
        },
        {
            "buffer" : 0,
            "byteLength" : 28720,
            "byteOffset" : 64620
        },
        {
            "buffer" : 0,
            "byteLength" : 8304,
            "byteOffset" : 93340
        },
        {
            "buffer" : 0,
            "byteLength" : 384,
            "byteOffset" : 101644
        },
        {
            "buffer" : 0,
            "byteLength" : 29016,
            "byteOffset" : 102028
        },
        {
            "buffer" : 0,
            "byteLength" : 29016,
            "byteOffset" : 131044
        },
        {
            "buffer" : 0,
            "byteLength" : 19344,
            "byteOffset" : 160060
        },
        {
            "buffer" : 0,
            "byteLength" : 9672,
            "byteOffset" : 179404
        },
        {
            "buffer" : 0,
            "byteLength" : 38688,
            "byteOffset" : 189076
        },
        {
            "buffer" : 0,
            "byteLength" : 11004,
            "byteOffset" : 227764
        },
        {
            "buffer" : 0,
            "byteLength" : 18468,
            "byteOffset" : 238768
        },
        {
            "buffer" : 0,
            "byteLength" : 18468,
            "byteOffset" : 257236
        },
        {
            "buffer" : 0,
            "byteLength" : 12312,
            "byteOffset" : 275704
        },
        {
            "buffer" : 0,
            "byteLength" : 6156,
            "byteOffset" : 288016
        },
        {
            "buffer" : 0,
            "byteLength" : 24624,
            "byteOffset" : 294172
        },
        {
            "buffer" : 0,
            "byteLength" : 5388,
            "byteOffset" : 318796
        },
        {
            "buffer" : 0,
            "byteLength" : 17484,
            "byteOffset" : 324184
        },
        {
            "buffer" : 0,
            "byteLength" : 17484,
            "byteOffset" : 341668
        },
        {
            "buffer" : 0,
            "byteLength" : 11656,
            "byteOffset" : 359152
        },
        {
            "buffer" : 0,
            "byteLength" : 5828,
            "byteOffset" : 370808
        },
        {
            "buffer" : 0,
            "byteLength" : 23312,
            "byteOffset" : 376636
        },
        {
            "buffer" : 0,
            "byteLength" : 6576,
            "byteOffset" : 399948
        },
        {
            "buffer" : 0,
            "byteLength" : 13344,
            "byteOffset" : 406524
        },
        {
            "buffer" : 0,
            "byteLength" : 13344,
            "byteOffset" : 419868
        },
        {
            "buffer" : 0,
            "byteLength" : 8896,
            "byteOffset" : 433212
        },
        {
            "buffer" : 0,
            "byteLength" : 4448,
            "byteOffset" : 442108
        },
        {
            "buffer" : 0,
            "byteLength" : 17792,
            "byteOffset" : 446556
        },
        {
            "buffer" : 0,
            "byteLength" : 4440,
            "byteOffset" : 464348
        },
        {
            "buffer" : 0,
            "byteLength" : 6168,
            "byteOffset" : 468788
        },
        {
            "buffer" : 0,
            "byteLength" : 6168,
            "byteOffset" : 474956
        },
        {
            "buffer" : 0,
            "byteLength" : 4112,
            "byteOffset" : 481124
        },
        {
            "buffer" : 0,
            "byteLength" : 2056,
            "byteOffset" : 485236
        },
        {
            "buffer" : 0,
            "byteLength" : 8224,
            "byteOffset" : 487292
        },
        {
            "buffer" : 0,
            "byteLength" : 2148,
            "byteOffset" : 495516
        }
    ],
    "buffers" : [
        {
            "byteLength" : 497664,
            "uri" : "data:application/octet-stream;base64,"
        }
    ]
}
