{
    "asset" : {
        "generator" : "Khronos glTF Blender I/O v1.7.33",
        "version" : "2.0"
    },
    "scene" : 0,
    "scenes" : [
        {
            "name" : "Scene",
            "nodes" : [
                12
            ]
        }
    ],
    "nodes" : [
        {
            "name" : "Bone.005",
            "rotation" : [
                -0.0062329573556780815,
                -3.064677844832886e-09,
                5.974282846210599e-09,
                0.9999805688858032
            ],
            "scale" : [
                1,
                1,
                0.9999999403953552
            ],
            "translation" : [
                -2.9801782375216135e-08,
                0.5336284041404724,
                2.84950352202884e-09
            ]
        },
        {
            "children" : [
                0
            ],
            "name" : "Bone.004",
            "rotation" : [
                0.21012811362743378,
                -4.1096406833140975e-10,
                -2.0055439620136895e-07,
                0.9776738882064819
            ],
            "scale" : [
                0.9999999403953552,
                0.9999998211860657,
                0.9999998807907104
            ],
            "translation" : [
                -1.4901157641133977e-08,
                0.8443415760993958,
                6.12756309692486e-07
            ]
        },
        {
            "children" : [
                1
            ],
            "name" : "Bone.003",
            "rotation" : [
                0.4702005982398987,
                1.2183299702428485e-07,
                -5.079222660242522e-07,
                0.882559597492218
            ],
            "scale" : [
                1,
                1.0000001192092896,
                1
            ],
            "translation" : [
                2.9802791345900914e-08,
                1.5633248090744019,
                1.3624959649405355e-07
            ]
        },
        {
            "children" : [
                2
            ],
            "name" : "Bone.002",
            "rotation" : [
                0.06844685971736908,
                -4.167612246419594e-07,
                -6.621419856855937e-08,
                0.9976547956466675
            ],
            "scale" : [
                1,
                1.000000238418579,
                1.0000001192092896
            ],
            "translation" : [
                -1.4901193168270765e-08,
                1.9750016927719116,
                -3.6436169636999693e-08
            ]
        },
        {
            "children" : [
                3
            ],
            "name" : "Bone.001",
            "rotation" : [
                0.7035925984382629,
                0.07040957361459732,
                0.0704096183180809,
                0.7035925388336182
            ],
            "scale" : [
                0.9999998807907104,
                1,
                0.9999998807907104
            ],
            "translation" : [
                -8.138185354611931e-17,
                1.000000238418579,
                -2.7755573961267688e-17
            ]
        },
        {
            "children" : [
                4
            ],
            "name" : "Bone",
            "rotation" : [
                6.339203650895797e-08,
                7.574776361707336e-09,
                5.088690720462098e-16,
                1
            ],
            "translation" : [
                5.056045954869632e-18,
                6.379564816854105e-19,
                2.7755573961267688e-17
            ]
        },
        {
            "mesh" : 0,
            "name" : "chan de 2 v1",
            "skin" : 0
        },
        {
            "mesh" : 1,
            "name" : "chan de v1",
            "skin" : 0
        },
        {
            "mesh" : 2,
            "name" : "khop 3 v2",
            "skin" : 0
        },
        {
            "mesh" : 3,
            "name" : "khop 4 v3",
            "skin" : 0
        },
        {
            "mesh" : 4,
            "name" : "khop 5 v2",
            "skin" : 0
        },
        {
            "mesh" : 5,
            "name" : "khop 6 v1",
            "skin" : 0
        },
        {
            "children" : [
                6,
                7,
                8,
                9,
                10,
                11,
                5
            ],
            "name" : "Armature",
            "rotation" : [
                -0.7071068286895752,
                0,
                0,
                0.7071068286895752
            ],
            "scale" : [
                101.34767150878906,
                101.34767150878906,
                101.34767150878906
            ],
            "translation" : [
                0,
                -0.4611968994140625,
                100.68122863769531
            ]
        }
    ],
    "materials" : [
        {
            "doubleSided" : true,
            "name" : "Steel_-_Satin.025",
            "pbrMetallicRoughness" : {
                "baseColorFactor" : [
                    0.800000011920929,
                    0.800000011920929,
                    0.800000011920929,
                    1
                ],
                "metallicFactor" : 0,
                "roughnessFactor" : 0.5
            }
        },
        {
            "doubleSided" : true,
            "name" : "Steel_-_Satin.026",
            "pbrMetallicRoughness" : {
                "baseColorFactor" : [
                    0.800000011920929,
                    0.800000011920929,
                    0.800000011920929,
                    1
                ],
                "metallicFactor" : 0,
                "roughnessFactor" : 0.5
            }
        },
        {
            "doubleSided" : true,
            "name" : "Steel_-_Satin.027",
            "pbrMetallicRoughness" : {
                "baseColorFactor" : [
                    0.800000011920929,
                    0.800000011920929,
                    0.800000011920929,
                    1
                ],
                "metallicFactor" : 0,
                "roughnessFactor" : 0.5
            }
        },
        {
            "doubleSided" : true,
            "name" : "Steel_-_Satin.028",
            "pbrMetallicRoughness" : {
                "baseColorFactor" : [
                    0.800000011920929,
                    0.800000011920929,
                    0.800000011920929,
                    1
                ],
                "metallicFactor" : 0,
                "roughnessFactor" : 0.5
            }
        },
        {
            "doubleSided" : true,
            "name" : "Steel_-_Satin.029",
            "pbrMetallicRoughness" : {
                "baseColorFactor" : [
                    0.800000011920929,
                    0.800000011920929,
                    0.800000011920929,
                    1
                ],
                "metallicFactor" : 0,
                "roughnessFactor" : 0.5
            }
        },
        {
            "doubleSided" : true,
            "name" : "Steel_-_Satin.030",
            "pbrMetallicRoughness" : {
                "baseColorFactor" : [
                    0.800000011920929,
                    0.800000011920929,
                    0.800000011920929,
                    1
                ],
                "metallicFactor" : 0,
                "roughnessFactor" : 0.5
            }
        }
    ],
    "meshes" : [
        {
            "name" : "chan de 2 v1.004",
            "primitives" : [
                {
                    "attributes" : {
                        "POSITION" : 0,
                        "NORMAL" : 1,
                        "TEXCOORD_0" : 2,
                        "JOINTS_0" : 3,
                        "WEIGHTS_0" : 4
                    },
                    "indices" : 5,
                    "material" : 0
                }
            ]
        },
        {
            "name" : "chan de v1.004",
            "primitives" : [
                {
                    "attributes" : {
                        "POSITION" : 7,
                        "NORMAL" : 8,
                        "TEXCOORD_0" : 9,
                        "JOINTS_0" : 10,
                        "WEIGHTS_0" : 11
                    },
                    "indices" : 12,
                    "material" : 1
                }
            ]
        },
        {
            "name" : "khop 3 v2.004",
            "primitives" : [
                {
                    "attributes" : {
                        "POSITION" : 13,
                        "NORMAL" : 14,
                        "TEXCOORD_0" : 15,
                        "JOINTS_0" : 16,
                        "WEIGHTS_0" : 17
                    },
                    "indices" : 18,
                    "material" : 2
                }
            ]
        },
        {
            "name" : "khop 4 v3.004",
            "primitives" : [
                {
                    "attributes" : {
                        "POSITION" : 19,
                        "NORMAL" : 20,
                        "TEXCOORD_0" : 21,
                        "JOINTS_0" : 22,
                        "WEIGHTS_0" : 23
                    },
                    "indices" : 24,
                    "material" : 3
                }
            ]
        },
        {
            "name" : "khop 5 v2.004",
            "primitives" : [
                {
                    "attributes" : {
                        "POSITION" : 25,
                        "NORMAL" : 26,
                        "TEXCOORD_0" : 27,
                        "JOINTS_0" : 28,
                        "WEIGHTS_0" : 29
                    },
                    "indices" : 30,
                    "material" : 4
                }
            ]
        },
        {
            "name" : "khop 6 v1.004",
            "primitives" : [
                {
                    "attributes" : {
                        "POSITION" : 31,
                        "NORMAL" : 32,
                        "TEXCOORD_0" : 33,
                        "JOINTS_0" : 34,
                        "WEIGHTS_0" : 35
                    },
                    "indices" : 36,
                    "material" : 5
                }
            ]
        }
    ],
    "skins" : [
        {
            "inverseBindMatrices" : 6,
            "joints" : [
                5,
                4,
                3,
                2,
                1,
                0
            ],
            "name" : "Armature"
        }
    ],
    "accessors" : [
        {
            "bufferView" : 0,
            "componentType" : 5126,
            "count" : 1713,
            "max" : [
                89.24169158935547,
                250.00001525878906,
                68.72000122070312
            ],
            "min" : [
                -90.75831604003906,
                29.999990463256836,
                -70.7610092163086
            ],
            "type" : "VEC3"
        },
        {
            "bufferView" : 1,
            "componentType" : 5126,
            "count" : 1713,
            "type" : "VEC3"
        },
        {
            "bufferView" : 2,
            "componentType" : 5126,
            "count" : 1713,
            "type" : "VEC2"
        },
        {
            "bufferView" : 3,
            "componentType" : 5121,
            "count" : 1713,
            "type" : "VEC4"
        },
        {
            "bufferView" : 4,
            "componentType" : 5126,
            "count" : 1713,
            "type" : "VEC4"
        },
        {
            "bufferView" : 5,
            "componentType" : 5123,
            "count" : 4152,
            "type" : "SCALAR"
        },
        {
            "bufferView" : 6,
            "componentType" : 5126,
            "count" : 6,
            "type" : "MAT4"
        },
        {
            "bufferView" : 7,
            "componentType" : 5126,
            "count" : 2429,
            "max" : [
                73.42804718017578,
                130.00001525878906,
                73.46403503417969
            ],
            "min" : [
                -76.57195281982422,
                -1.5990885003702715e-05,
                -76.53599548339844
            ],
            "type" : "VEC3"
        },
        {
            "bufferView" : 8,
            "componentType" : 5126,
            "count" : 2429,
            "type" : "VEC3"
        },
        {
            "bufferView" : 9,
            "componentType" : 5126,
            "count" : 2429,
            "type" : "VEC2"
        },
        {
            "bufferView" : 10,
            "componentType" : 5121,
            "count" : 2429,
            "type" : "VEC4"
        },
        {
            "bufferView" : 11,
            "componentType" : 5126,
            "count" : 2429,
            "type" : "VEC4"
        },
        {
            "bufferView" : 12,
            "componentType" : 5123,
            "count" : 5502,
            "type" : "SCALAR"
        },
        {
            "bufferView" : 13,
            "componentType" : 5126,
            "count" : 1555,
            "max" : [
                95,
                409.3446960449219,
                76.01287078857422
            ],
            "min" : [
                -95,
                150.00001525878906,
                -51.055721282958984
            ],
            "type" : "VEC3"
        },
        {
            "bufferView" : 14,
            "componentType" : 5126,
            "count" : 1555,
            "type" : "VEC3"
        },
        {
            "bufferView" : 15,
            "componentType" : 5126,
            "count" : 1555,
            "type" : "VEC2"
        },
        {
            "bufferView" : 16,
            "componentType" : 5121,
            "count" : 1555,
            "type" : "VEC4"
        },
        {
            "bufferView" : 17,
            "componentType" : 5126,
            "count" : 1555,
            "type" : "VEC4"
        },
        {
            "bufferView" : 18,
            "componentType" : 5123,
            "count" : 2694,
            "type" : "SCALAR"
        },
        {
            "bufferView" : 19,
            "componentType" : 5126,
            "count" : 1483,
            "max" : [
                69,
                421.9999694824219,
                110.12211608886719
            ],
            "min" : [
                -69.99999237060547,
                302,
                -11.05573558807373
            ],
            "type" : "VEC3"
        },
        {
            "bufferView" : 20,
            "componentType" : 5126,
            "count" : 1483,
            "type" : "VEC3"
        },
        {
            "bufferView" : 21,
            "componentType" : 5126,
            "count" : 1483,
            "type" : "VEC2"
        },
        {
            "bufferView" : 22,
            "componentType" : 5121,
            "count" : 1483,
            "type" : "VEC4"
        },
        {
            "bufferView" : 23,
            "componentType" : 5126,
            "count" : 1483,
            "type" : "VEC4"
        },
        {
            "bufferView" : 24,
            "componentType" : 5123,
            "count" : 3288,
            "type" : "SCALAR"
        },
        {
            "bufferView" : 25,
            "componentType" : 5126,
            "count" : 1136,
            "max" : [
                42.499996185302734,
                415,
                174.94427490234375
            ],
            "min" : [
                -42.499996185302734,
                372,
                89.94426727294922
            ],
            "type" : "VEC3"
        },
        {
            "bufferView" : 26,
            "componentType" : 5126,
            "count" : 1136,
            "type" : "VEC3"
        },
        {
            "bufferView" : 27,
            "componentType" : 5126,
            "count" : 1136,
            "type" : "VEC2"
        },
        {
            "bufferView" : 28,
            "componentType" : 5121,
            "count" : 1136,
            "type" : "VEC4"
        },
        {
            "bufferView" : 29,
            "componentType" : 5126,
            "count" : 1136,
            "type" : "VEC4"
        },
        {
            "bufferView" : 30,
            "componentType" : 5123,
            "count" : 2220,
            "type" : "SCALAR"
        },
        {
            "bufferView" : 31,
            "componentType" : 5126,
            "count" : 512,
            "max" : [
                22.499998092651367,
                415.9999694824219,
                214.94424438476562
            ],
            "min" : [
                -22.499998092651367,
                370.9999084472656,
                134.94424438476562
            ],
            "type" : "VEC3"
        },
        {
            "bufferView" : 32,
            "componentType" : 5126,
            "count" : 512,
            "type" : "VEC3"
        },
        {
            "bufferView" : 33,
            "componentType" : 5126,
            "count" : 512,
            "type" : "VEC2"
        },
        {
            "bufferView" : 34,
            "componentType" : 5121,
            "count" : 512,
            "type" : "VEC4"
        },
        {
            "bufferView" : 35,
            "componentType" : 5126,
            "count" : 512,
            "type" : "VEC4"
        },
        {
            "bufferView" : 36,
            "componentType" : 5123,
            "count" : 1074,
            "type" : "SCALAR"
        }
    ],
    "bufferViews" : [
        {
            "buffer" : 0,
            "byteLength" : 20556,
            "byteOffset" : 0
        },
        {
            "buffer" : 0,
            "byteLength" : 20556,
            "byteOffset" : 20556
        },
        {
            "buffer" : 0,
            "byteLength" : 13704,
            "byteOffset" : 41112
        },
        {
            "buffer" : 0,
            "byteLength" : 6852,
            "byteOffset" : 54816
        },
        {
            "buffer" : 0,
            "byteLength" : 27408,
            "byteOffset" : 61668
        },
        {
            "buffer" : 0,
            "byteLength" : 8304,
            "byteOffset" : 89076
        },
        {
            "buffer" : 0,
            "byteLength" : 384,
            "byteOffset" : 97380
        },
        {
            "buffer" : 0,
            "byteLength" : 29148,
            "byteOffset" : 97764
        },
        {
            "buffer" : 0,
            "byteLength" : 29148,
            "byteOffset" : 126912
        },
        {
            "buffer" : 0,
            "byteLength" : 19432,
            "byteOffset" : 156060
        },
        {
            "buffer" : 0,
            "byteLength" : 9716,
            "byteOffset" : 175492
        },
        {
            "buffer" : 0,
            "byteLength" : 38864,
            "byteOffset" : 185208
        },
        {
            "buffer" : 0,
            "byteLength" : 11004,
            "byteOffset" : 224072
        },
        {
            "buffer" : 0,
            "byteLength" : 18660,
            "byteOffset" : 235076
        },
        {
            "buffer" : 0,
            "byteLength" : 18660,
            "byteOffset" : 253736
        },
        {
            "buffer" : 0,
            "byteLength" : 12440,
            "byteOffset" : 272396
        },
        {
            "buffer" : 0,
            "byteLength" : 6220,
            "byteOffset" : 284836
        },
        {
            "buffer" : 0,
            "byteLength" : 24880,
            "byteOffset" : 291056
        },
        {
            "buffer" : 0,
            "byteLength" : 5388,
            "byteOffset" : 315936
        },
        {
            "buffer" : 0,
            "byteLength" : 17796,
            "byteOffset" : 321324
        },
        {
            "buffer" : 0,
            "byteLength" : 17796,
            "byteOffset" : 339120
        },
        {
            "buffer" : 0,
            "byteLength" : 11864,
            "byteOffset" : 356916
        },
        {
            "buffer" : 0,
            "byteLength" : 5932,
            "byteOffset" : 368780
        },
        {
            "buffer" : 0,
            "byteLength" : 23728,
            "byteOffset" : 374712
        },
        {
            "buffer" : 0,
            "byteLength" : 6576,
            "byteOffset" : 398440
        },
        {
            "buffer" : 0,
            "byteLength" : 13632,
            "byteOffset" : 405016
        },
        {
            "buffer" : 0,
            "byteLength" : 13632,
            "byteOffset" : 418648
        },
        {
            "buffer" : 0,
            "byteLength" : 9088,
            "byteOffset" : 432280
        },
        {
            "buffer" : 0,
            "byteLength" : 4544,
            "byteOffset" : 441368
        },
        {
            "buffer" : 0,
            "byteLength" : 18176,
            "byteOffset" : 445912
        },
        {
            "buffer" : 0,
            "byteLength" : 4440,
            "byteOffset" : 464088
        },
        {
            "buffer" : 0,
            "byteLength" : 6144,
            "byteOffset" : 468528
        },
        {
            "buffer" : 0,
            "byteLength" : 6144,
            "byteOffset" : 474672
        },
        {
            "buffer" : 0,
            "byteLength" : 4096,
            "byteOffset" : 480816
        },
        {
            "buffer" : 0,
            "byteLength" : 2048,
            "byteOffset" : 484912
        },
        {
            "buffer" : 0,
            "byteLength" : 8192,
            "byteOffset" : 486960
        },
        {
            "buffer" : 0,
            "byteLength" : 2148,
            "byteOffset" : 495152
        }
    ],
    "buffers" : [
        {
            "byteLength" : 497300,
            "uri" : "data:application/octet-stream;base64,"
        }
    ]
}
