{
    "asset" : {
        "generator" : "Khronos glTF Blender I/O v1.7.33",
        "version" : "2.0"
    },
    "scene" : 0,
    "scenes" : [
        {
            "name" : "Scene",
            "nodes" : [
                12
            ]
        }
    ],
    "nodes" : [
        {
            "name" : "Bone.005",
            "rotation" : [
                -0.010414994321763515,
                -1.807008875864824e-09,
                1.7407913333045144e-08,
                0.9999457597732544
            ],
            "translation" : [
                8.587154967133748e-13,
                0.37021520733833313,
                -6.610543579199657e-08
            ]
        },
        {
            "children" : [
                0
            ],
            "name" : "Bone.004",
            "rotation" : [
                0.2200751006603241,
                4.968080613565462e-09,
                -3.685619276438956e-07,
                0.9754829406738281
            ],
            "scale" : [
                1,
                1,
                0.9999999403953552
            ],
            "translation" : [
                -2.1419492698612763e-13,
                0.625132143497467,
                -1.7078471614695445e-07
            ]
        },
        {
            "children" : [
                1
            ],
            "name" : "Bone.003",
            "rotation" : [
                0.4667658507823944,
                2.7289073045722034e-07,
                -9.28103929709323e-07,
                0.8843809366226196
            ],
            "scale" : [
                1,
                0.9999997615814209,
                0.9999999403953552
            ],
            "translation" : [
                -5.120516098806871e-14,
                1.133622646331787,
                1.3155440115042438e-07
            ]
        },
        {
            "children" : [
                2
            ],
            "name" : "Bone.002",
            "rotation" : [
                0.0777977705001831,
                -9.508710832051293e-07,
                -1.0449616638652515e-07,
                0.9969691634178162
            ],
            "scale" : [
                1,
                0.9999998807907104,
                0.9999999403953552
            ],
            "translation" : [
                1.831349470942517e-13,
                1.4160727262496948,
                -1.8492498199407237e-08
            ]
        },
        {
            "children" : [
                3
            ],
            "name" : "Bone.001",
            "rotation" : [
                0.70710688829422,
                -1.3993970071624062e-07,
                -1.354178493784275e-07,
                0.7071066498756409
            ],
            "translation" : [
                -2.678122038151249e-16,
                1.000000238418579,
                0
            ]
        },
        {
            "children" : [
                4
            ],
            "name" : "Bone",
            "rotation" : [
                6.339203650895797e-08,
                7.574776361707336e-09,
                5.088690720462098e-16,
                1
            ]
        },
        {
            "mesh" : 0,
            "name" : "chan de 2 v1",
            "skin" : 0
        },
        {
            "mesh" : 1,
            "name" : "chan de v1",
            "skin" : 0
        },
        {
            "mesh" : 2,
            "name" : "khop 3 v2",
            "skin" : 0
        },
        {
            "mesh" : 3,
            "name" : "khop 4 v3",
            "skin" : 0
        },
        {
            "mesh" : 4,
            "name" : "khop 5 v2",
            "skin" : 0
        },
        {
            "mesh" : 5,
            "name" : "khop 6 v1",
            "skin" : 0
        },
        {
            "children" : [
                6,
                7,
                8,
                9,
                10,
                11,
                5
            ],
            "name" : "Armature",
            "rotation" : [
                -0.7071068286895752,
                0,
                0,
                0.7071068286895752
            ],
            "scale" : [
                70.28700256347656,
                70.28700256347656,
                70.28700256347656
            ],
            "translation" : [
                0,
                -0.2509613037109375,
                68.88770294189453
            ]
        }
    ],
    "materials" : [
        {
            "doubleSided" : true,
            "name" : "Steel_-_Satin.019",
            "pbrMetallicRoughness" : {
                "baseColorFactor" : [
                    0.800000011920929,
                    0.800000011920929,
                    0.800000011920929,
                    1
                ],
                "metallicFactor" : 0,
                "roughnessFactor" : 0.5
            }
        },
        {
            "doubleSided" : true,
            "name" : "Steel_-_Satin.020",
            "pbrMetallicRoughness" : {
                "baseColorFactor" : [
                    0.800000011920929,
                    0.800000011920929,
                    0.800000011920929,
                    1
                ],
                "metallicFactor" : 0,
                "roughnessFactor" : 0.5
            }
        },
        {
            "doubleSided" : true,
            "name" : "Steel_-_Satin.021",
            "pbrMetallicRoughness" : {
                "baseColorFactor" : [
                    0.800000011920929,
                    0.800000011920929,
                    0.800000011920929,
                    1
                ],
                "metallicFactor" : 0,
                "roughnessFactor" : 0.5
            }
        },
        {
            "doubleSided" : true,
            "name" : "Steel_-_Satin.022",
            "pbrMetallicRoughness" : {
                "baseColorFactor" : [
                    0.800000011920929,
                    0.800000011920929,
                    0.800000011920929,
                    1
                ],
                "metallicFactor" : 0,
                "roughnessFactor" : 0.5
            }
        },
        {
            "doubleSided" : true,
            "name" : "Steel_-_Satin.023",
            "pbrMetallicRoughness" : {
                "baseColorFactor" : [
                    0.800000011920929,
                    0.800000011920929,
                    0.800000011920929,
                    1
                ],
                "metallicFactor" : 0,
                "roughnessFactor" : 0.5
            }
        },
        {
            "doubleSided" : true,
            "name" : "Steel_-_Satin.024",
            "pbrMetallicRoughness" : {
                "baseColorFactor" : [
                    0.800000011920929,
                    0.800000011920929,
                    0.800000011920929,
                    1
                ],
                "metallicFactor" : 0,
                "roughnessFactor" : 0.5
            }
        }
    ],
    "meshes" : [
        {
            "name" : "chan de 2 v1.003",
            "primitives" : [
                {
                    "attributes" : {
                        "POSITION" : 0,
                        "NORMAL" : 1,
                        "TEXCOORD_0" : 2,
                        "JOINTS_0" : 3,
                        "WEIGHTS_0" : 4
                    },
                    "indices" : 5,
                    "material" : 0
                }
            ]
        },
        {
            "name" : "chan de v1.003",
            "primitives" : [
                {
                    "attributes" : {
                        "POSITION" : 7,
                        "NORMAL" : 8,
                        "TEXCOORD_0" : 9,
                        "JOINTS_0" : 10,
                        "WEIGHTS_0" : 11
                    },
                    "indices" : 12,
                    "material" : 1
                }
            ]
        },
        {
            "name" : "khop 3 v2.003",
            "primitives" : [
                {
                    "attributes" : {
                        "POSITION" : 13,
                        "NORMAL" : 14,
                        "TEXCOORD_0" : 15,
                        "JOINTS_0" : 16,
                        "WEIGHTS_0" : 17
                    },
                    "indices" : 18,
                    "material" : 2
                }
            ]
        },
        {
            "name" : "khop 4 v3.003",
            "primitives" : [
                {
                    "attributes" : {
                        "POSITION" : 19,
                        "NORMAL" : 20,
                        "TEXCOORD_0" : 21,
                        "JOINTS_0" : 22,
                        "WEIGHTS_0" : 23
                    },
                    "indices" : 24,
                    "material" : 3
                }
            ]
        },
        {
            "name" : "khop 5 v2.003",
            "primitives" : [
                {
                    "attributes" : {
                        "POSITION" : 25,
                        "NORMAL" : 26,
                        "TEXCOORD_0" : 27,
                        "JOINTS_0" : 28,
                        "WEIGHTS_0" : 29
                    },
                    "indices" : 30,
                    "material" : 4
                }
            ]
        },
        {
            "name" : "khop 6 v1.003",
            "primitives" : [
                {
                    "attributes" : {
                        "POSITION" : 31,
                        "NORMAL" : 32,
                        "TEXCOORD_0" : 33,
                        "JOINTS_0" : 34,
                        "WEIGHTS_0" : 35
                    },
                    "indices" : 36,
                    "material" : 5
                }
            ]
        }
    ],
    "skins" : [
        {
            "inverseBindMatrices" : 6,
            "joints" : [
                5,
                4,
                3,
                2,
                1,
                0
            ],
            "name" : "Armature"
        }
    ],
    "accessors" : [
        {
            "bufferView" : 0,
            "componentType" : 5126,
            "count" : 1709,
            "max" : [
                44.24169158935547,
                125,
                33.82610321044922
            ],
            "min" : [
                -45.75831604003906,
                14.999993324279785,
                -35.914405822753906
            ],
            "type" : "VEC3"
        },
        {
            "bufferView" : 1,
            "componentType" : 5126,
            "count" : 1709,
            "type" : "VEC3"
        },
        {
            "bufferView" : 2,
            "componentType" : 5126,
            "count" : 1709,
            "type" : "VEC2"
        },
        {
            "bufferView" : 3,
            "componentType" : 5121,
            "count" : 1709,
            "type" : "VEC4"
        },
        {
            "bufferView" : 4,
            "componentType" : 5126,
            "count" : 1709,
            "type" : "VEC4"
        },
        {
            "bufferView" : 5,
            "componentType" : 5123,
            "count" : 4152,
            "type" : "SCALAR"
        },
        {
            "bufferView" : 6,
            "componentType" : 5126,
            "count" : 6,
            "type" : "MAT4"
        },
        {
            "bufferView" : 7,
            "componentType" : 5126,
            "count" : 2433,
            "max" : [
                36.585304260253906,
                65.00000762939453,
                36.51974868774414
            ],
            "min" : [
                -38.414703369140625,
                -9.654726454755291e-06,
                -38.48026657104492
            ],
            "type" : "VEC3"
        },
        {
            "bufferView" : 8,
            "componentType" : 5126,
            "count" : 2433,
            "type" : "VEC3"
        },
        {
            "bufferView" : 9,
            "componentType" : 5126,
            "count" : 2433,
            "type" : "VEC2"
        },
        {
            "bufferView" : 10,
            "componentType" : 5121,
            "count" : 2433,
            "type" : "VEC4"
        },
        {
            "bufferView" : 11,
            "componentType" : 5126,
            "count" : 2433,
            "type" : "VEC4"
        },
        {
            "bufferView" : 12,
            "componentType" : 5123,
            "count" : 5502,
            "type" : "SCALAR"
        },
        {
            "bufferView" : 13,
            "componentType" : 5126,
            "count" : 1603,
            "max" : [
                47.015445709228516,
                204.6723175048828,
                37.69013595581055
            ],
            "min" : [
                -47.984554290771484,
                74.99999237060547,
                -25.84415626525879
            ],
            "type" : "VEC3"
        },
        {
            "bufferView" : 14,
            "componentType" : 5126,
            "count" : 1603,
            "type" : "VEC3"
        },
        {
            "bufferView" : 15,
            "componentType" : 5126,
            "count" : 1603,
            "type" : "VEC2"
        },
        {
            "bufferView" : 16,
            "componentType" : 5121,
            "count" : 1603,
            "type" : "VEC4"
        },
        {
            "bufferView" : 17,
            "componentType" : 5126,
            "count" : 1603,
            "type" : "VEC4"
        },
        {
            "bufferView" : 18,
            "componentType" : 5123,
            "count" : 2694,
            "type" : "SCALAR"
        },
        {
            "bufferView" : 19,
            "componentType" : 5126,
            "count" : 1454,
            "max" : [
                33.97792434692383,
                211,
                54.37034606933594
            ],
            "min" : [
                -35.52207565307617,
                151,
                -6.218579292297363
            ],
            "type" : "VEC3"
        },
        {
            "bufferView" : 20,
            "componentType" : 5126,
            "count" : 1454,
            "type" : "VEC3"
        },
        {
            "bufferView" : 21,
            "componentType" : 5126,
            "count" : 1454,
            "type" : "VEC2"
        },
        {
            "bufferView" : 22,
            "componentType" : 5121,
            "count" : 1454,
            "type" : "VEC4"
        },
        {
            "bufferView" : 23,
            "componentType" : 5126,
            "count" : 1454,
            "type" : "VEC4"
        },
        {
            "bufferView" : 24,
            "componentType" : 5123,
            "count" : 3288,
            "type" : "SCALAR"
        },
        {
            "bufferView" : 25,
            "componentType" : 5126,
            "count" : 1131,
            "max" : [
                20.515445709228516,
                207.4164276123047,
                86.98245239257812
            ],
            "min" : [
                -21.984554290771484,
                185.91641235351562,
                44.482444763183594
            ],
            "type" : "VEC3"
        },
        {
            "bufferView" : 26,
            "componentType" : 5126,
            "count" : 1131,
            "type" : "VEC3"
        },
        {
            "bufferView" : 27,
            "componentType" : 5126,
            "count" : 1131,
            "type" : "VEC2"
        },
        {
            "bufferView" : 28,
            "componentType" : 5121,
            "count" : 1131,
            "type" : "VEC4"
        },
        {
            "bufferView" : 29,
            "componentType" : 5126,
            "count" : 1131,
            "type" : "VEC4"
        },
        {
            "bufferView" : 30,
            "componentType" : 5123,
            "count" : 2220,
            "type" : "SCALAR"
        },
        {
            "bufferView" : 31,
            "componentType" : 5126,
            "count" : 522,
            "max" : [
                10.515445709228516,
                207.88775634765625,
                107.15583801269531
            ],
            "min" : [
                -11.984554290771484,
                185.3877410888672,
                67.15583801269531
            ],
            "type" : "VEC3"
        },
        {
            "bufferView" : 32,
            "componentType" : 5126,
            "count" : 522,
            "type" : "VEC3"
        },
        {
            "bufferView" : 33,
            "componentType" : 5126,
            "count" : 522,
            "type" : "VEC2"
        },
        {
            "bufferView" : 34,
            "componentType" : 5121,
            "count" : 522,
            "type" : "VEC4"
        },
        {
            "bufferView" : 35,
            "componentType" : 5126,
            "count" : 522,
            "type" : "VEC4"
        },
        {
            "bufferView" : 36,
            "componentType" : 5123,
            "count" : 1074,
            "type" : "SCALAR"
        }
    ],
    "bufferViews" : [
        {
            "buffer" : 0,
            "byteLength" : 20508,
            "byteOffset" : 0
        },
        {
            "buffer" : 0,
            "byteLength" : 20508,
            "byteOffset" : 20508
        },
        {
            "buffer" : 0,
            "byteLength" : 13672,
            "byteOffset" : 41016
        },
        {
            "buffer" : 0,
            "byteLength" : 6836,
            "byteOffset" : 54688
        },
        {
            "buffer" : 0,
            "byteLength" : 27344,
            "byteOffset" : 61524
        },
        {
            "buffer" : 0,
            "byteLength" : 8304,
            "byteOffset" : 88868
        },
        {
            "buffer" : 0,
            "byteLength" : 384,
            "byteOffset" : 97172
        },
        {
            "buffer" : 0,
            "byteLength" : 29196,
            "byteOffset" : 97556
        },
        {
            "buffer" : 0,
            "byteLength" : 29196,
            "byteOffset" : 126752
        },
        {
            "buffer" : 0,
            "byteLength" : 19464,
            "byteOffset" : 155948
        },
        {
            "buffer" : 0,
            "byteLength" : 9732,
            "byteOffset" : 175412
        },
        {
            "buffer" : 0,
            "byteLength" : 38928,
            "byteOffset" : 185144
        },
        {
            "buffer" : 0,
            "byteLength" : 11004,
            "byteOffset" : 224072
        },
        {
            "buffer" : 0,
            "byteLength" : 19236,
            "byteOffset" : 235076
        },
        {
            "buffer" : 0,
            "byteLength" : 19236,
            "byteOffset" : 254312
        },
        {
            "buffer" : 0,
            "byteLength" : 12824,
            "byteOffset" : 273548
        },
        {
            "buffer" : 0,
            "byteLength" : 6412,
            "byteOffset" : 286372
        },
        {
            "buffer" : 0,
            "byteLength" : 25648,
            "byteOffset" : 292784
        },
        {
            "buffer" : 0,
            "byteLength" : 5388,
            "byteOffset" : 318432
        },
        {
            "buffer" : 0,
            "byteLength" : 17448,
            "byteOffset" : 323820
        },
        {
            "buffer" : 0,
            "byteLength" : 17448,
            "byteOffset" : 341268
        },
        {
            "buffer" : 0,
            "byteLength" : 11632,
            "byteOffset" : 358716
        },
        {
            "buffer" : 0,
            "byteLength" : 5816,
            "byteOffset" : 370348
        },
        {
            "buffer" : 0,
            "byteLength" : 23264,
            "byteOffset" : 376164
        },
        {
            "buffer" : 0,
            "byteLength" : 6576,
            "byteOffset" : 399428
        },
        {
            "buffer" : 0,
            "byteLength" : 13572,
            "byteOffset" : 406004
        },
        {
            "buffer" : 0,
            "byteLength" : 13572,
            "byteOffset" : 419576
        },
        {
            "buffer" : 0,
            "byteLength" : 9048,
            "byteOffset" : 433148
        },
        {
            "buffer" : 0,
            "byteLength" : 4524,
            "byteOffset" : 442196
        },
        {
            "buffer" : 0,
            "byteLength" : 18096,
            "byteOffset" : 446720
        },
        {
            "buffer" : 0,
            "byteLength" : 4440,
            "byteOffset" : 464816
        },
        {
            "buffer" : 0,
            "byteLength" : 6264,
            "byteOffset" : 469256
        },
        {
            "buffer" : 0,
            "byteLength" : 6264,
            "byteOffset" : 475520
        },
        {
            "buffer" : 0,
            "byteLength" : 4176,
            "byteOffset" : 481784
        },
        {
            "buffer" : 0,
            "byteLength" : 2088,
            "byteOffset" : 485960
        },
        {
            "buffer" : 0,
            "byteLength" : 8352,
            "byteOffset" : 488048
        },
        {
            "buffer" : 0,
            "byteLength" : 2148,
            "byteOffset" : 496400
        }
    ],
    "buffers" : [
        {
            "byteLength" : 498548,
            "uri" : "data:application/octet-stream;base64,"
        }
    ]
}
