{
    "asset" : {
        "generator" : "Khronos glTF Blender I/O v1.7.33",
        "version" : "2.0"
    },
    "scene" : 0,
    "scenes" : [
        {
            "name" : "Scene",
            "nodes" : [
                12
            ]
        }
    ],
    "nodes" : [
        {
            "name" : "Bone.005",
            "rotation" : [
                -0.010414994321763515,
                -1.807008875864824e-09,
                1.7407913333045144e-08,
                0.9999457597732544
            ],
            "translation" : [
                8.587154967133748e-13,
                0.37021520733833313,
                -6.610543579199657e-08
            ]
        },
        {
            "children" : [
                0
            ],
            "name" : "Bone.004",
            "rotation" : [
                0.2200751006603241,
                4.968080613565462e-09,
                -3.685619276438956e-07,
                0.9754829406738281
            ],
            "scale" : [
                1,
                1,
                0.9999999403953552
            ],
            "translation" : [
                -2.1419492698612763e-13,
                0.625132143497467,
                -1.7078471614695445e-07
            ]
        },
        {
            "children" : [
                1
            ],
            "name" : "Bone.003",
            "rotation" : [
                0.4667658507823944,
                2.7289073045722034e-07,
                -9.28103929709323e-07,
                0.8843809366226196
            ],
            "scale" : [
                1,
                0.9999997615814209,
                0.9999999403953552
            ],
            "translation" : [
                -5.120516098806871e-14,
                1.133622646331787,
                1.3155440115042438e-07
            ]
        },
        {
            "children" : [
                2
            ],
            "name" : "Bone.002",
            "rotation" : [
                0.0777977705001831,
                -9.508710832051293e-07,
                -1.0449616638652515e-07,
                0.9969691634178162
            ],
            "scale" : [
                1,
                0.9999998807907104,
                0.9999999403953552
            ],
            "translation" : [
                1.831349470942517e-13,
                1.4160727262496948,
                -1.8492498199407237e-08
            ]
        },
        {
            "children" : [
                3
            ],
            "name" : "Bone.001",
            "rotation" : [
                0.70710688829422,
                -1.3993970071624062e-07,
                -1.354178493784275e-07,
                0.7071066498756409
            ],
            "translation" : [
                -2.678122038151249e-16,
                1.000000238418579,
                0
            ]
        },
        {
            "children" : [
                4
            ],
            "name" : "Bone",
            "rotation" : [
                6.339203650895797e-08,
                7.574776361707336e-09,
                5.088690720462098e-16,
                1
            ]
        },
        {
            "mesh" : 0,
            "name" : "chan de 2 v1",
            "skin" : 0
        },
        {
            "mesh" : 1,
            "name" : "chan de v1",
            "skin" : 0
        },
        {
            "mesh" : 2,
            "name" : "khop 3 v2",
            "skin" : 0
        },
        {
            "mesh" : 3,
            "name" : "khop 4 v3",
            "skin" : 0
        },
        {
            "mesh" : 4,
            "name" : "khop 5 v2",
            "skin" : 0
        },
        {
            "mesh" : 5,
            "name" : "khop 6 v1",
            "skin" : 0
        },
        {
            "children" : [
                6,
                7,
                8,
                9,
                10,
                11,
                5
            ],
            "name" : "Armature",
            "rotation" : [
                -0.7071068286895752,
                0,
                0,
                0.7071068286895752
            ],
            "scale" : [
                85,
                85,
                85
            ],
            "translation" : [
                0,
                -0.2509613037109375,
                68.88770294189453
            ]
        }
    ],
    "materials" : [
        {
            "doubleSided" : true,
            "name" : "Steel_-_Satin.001",
            "pbrMetallicRoughness" : {
                "baseColorFactor" : [
                    0.800000011920929,
                    0.800000011920929,
                    0.800000011920929,
                    1
                ],
                "metallicFactor" : 0,
                "roughnessFactor" : 0.5
            }
        },
        {
            "doubleSided" : true,
            "name" : "Steel_-_Satin.002",
            "pbrMetallicRoughness" : {
                "baseColorFactor" : [
                    0.800000011920929,
                    0.800000011920929,
                    0.800000011920929,
                    1
                ],
                "metallicFactor" : 0,
                "roughnessFactor" : 0.5
            }
        },
        {
            "doubleSided" : true,
            "name" : "Steel_-_Satin.003",
            "pbrMetallicRoughness" : {
                "baseColorFactor" : [
                    0.800000011920929,
                    0.800000011920929,
                    0.800000011920929,
                    1
                ],
                "metallicFactor" : 0,
                "roughnessFactor" : 0.5
            }
        },
        {
            "doubleSided" : true,
            "name" : "Steel_-_Satin.005",
            "pbrMetallicRoughness" : {
                "baseColorFactor" : [
                    0.800000011920929,
                    0.800000011920929,
                    0.800000011920929,
                    1
                ],
                "metallicFactor" : 0,
                "roughnessFactor" : 0.5
            }
        },
        {
            "doubleSided" : true,
            "name" : "Steel_-_Satin.004",
            "pbrMetallicRoughness" : {
                "baseColorFactor" : [
                    0.800000011920929,
                    0.800000011920929,
                    0.800000011920929,
                    1
                ],
                "metallicFactor" : 0,
                "roughnessFactor" : 0.5
            }
        },
        {
            "doubleSided" : true,
            "name" : "Steel_-_Satin.006",
            "pbrMetallicRoughness" : {
                "baseColorFactor" : [
                    0.800000011920929,
                    0.800000011920929,
                    0.800000011920929,
                    1
                ],
                "metallicFactor" : 0,
                "roughnessFactor" : 0.5
            }
        }
    ],
    "meshes" : [
        {
            "name" : "chan de 2 v1",
            "primitives" : [
                {
                    "attributes" : {
                        "POSITION" : 0,
                        "NORMAL" : 1,
                        "TEXCOORD_0" : 2,
                        "JOINTS_0" : 3,
                        "WEIGHTS_0" : 4
                    },
                    "indices" : 5,
                    "material" : 0
                }
            ]
        },
        {
            "name" : "chan de v1",
            "primitives" : [
                {
                    "attributes" : {
                        "POSITION" : 7,
                        "NORMAL" : 8,
                        "TEXCOORD_0" : 9,
                        "JOINTS_0" : 10,
                        "WEIGHTS_0" : 11
                    },
                    "indices" : 12,
                    "material" : 1
                }
            ]
        },
        {
            "name" : "khop 3 v2",
            "primitives" : [
                {
                    "attributes" : {
                        "POSITION" : 13,
                        "NORMAL" : 14,
                        "TEXCOORD_0" : 15,
                        "JOINTS_0" : 16,
                        "WEIGHTS_0" : 17
                    },
                    "indices" : 18,
                    "material" : 2
                }
            ]
        },
        {
            "name" : "khop 4 v3",
            "primitives" : [
                {
                    "attributes" : {
                        "POSITION" : 19,
                        "NORMAL" : 20,
                        "TEXCOORD_0" : 21,
                        "JOINTS_0" : 22,
                        "WEIGHTS_0" : 23
                    },
                    "indices" : 24,
                    "material" : 3
                }
            ]
        },
        {
            "name" : "khop 5 v2",
            "primitives" : [
                {
                    "attributes" : {
                        "POSITION" : 25,
                        "NORMAL" : 26,
                        "TEXCOORD_0" : 27,
                        "JOINTS_0" : 28,
                        "WEIGHTS_0" : 29
                    },
                    "indices" : 30,
                    "material" : 4
                }
            ]
        },
        {
            "name" : "khop 6 v1",
            "primitives" : [
                {
                    "attributes" : {
                        "POSITION" : 31,
                        "NORMAL" : 32,
                        "TEXCOORD_0" : 33,
                        "JOINTS_0" : 34,
                        "WEIGHTS_0" : 35
                    },
                    "indices" : 36,
                    "material" : 5
                }
            ]
        }
    ],
    "skins" : [
        {
            "inverseBindMatrices" : 6,
            "joints" : [
                5,
                4,
                3,
                2,
                1,
                0
            ],
            "name" : "Armature"
        }
    ],
    "accessors" : [
        {
            "bufferView" : 0,
            "componentType" : 5126,
            "count" : 1709,
            "max" : [
                53.502689361572266,
                151.2184600830078,
                26.48674774169922
            ],
            "min" : [
                -55.33678436279297,
                18.19243621826172,
                -57.852359771728516
            ],
            "type" : "VEC3"
        },
        {
            "bufferView" : 1,
            "componentType" : 5126,
            "count" : 1709,
            "type" : "VEC3"
        },
        {
            "bufferView" : 2,
            "componentType" : 5126,
            "count" : 1709,
            "type" : "VEC2"
        },
        {
            "bufferView" : 3,
            "componentType" : 5121,
            "count" : 1709,
            "type" : "VEC4"
        },
        {
            "bufferView" : 4,
            "componentType" : 5126,
            "count" : 1709,
            "type" : "VEC4"
        },
        {
            "bufferView" : 5,
            "componentType" : 5123,
            "count" : 4152,
            "type" : "SCALAR"
        },
        {
            "bufferView" : 6,
            "componentType" : 5126,
            "count" : 6,
            "type" : "MAT4"
        },
        {
            "bufferView" : 7,
            "componentType" : 5126,
            "count" : 2434,
            "max" : [
                44.24361038208008,
                78.65882110595703,
                29.744247436523438
            ],
            "min" : [
                -46.45595169067383,
                0.05252140387892723,
                -60.955326080322266
            ],
            "type" : "VEC3"
        },
        {
            "bufferView" : 8,
            "componentType" : 5126,
            "count" : 2434,
            "type" : "VEC3"
        },
        {
            "bufferView" : 9,
            "componentType" : 5126,
            "count" : 2434,
            "type" : "VEC2"
        },
        {
            "bufferView" : 10,
            "componentType" : 5121,
            "count" : 2434,
            "type" : "VEC4"
        },
        {
            "bufferView" : 11,
            "componentType" : 5126,
            "count" : 2434,
            "type" : "VEC4"
        },
        {
            "bufferView" : 12,
            "componentType" : 5123,
            "count" : 5502,
            "type" : "SCALAR"
        },
        {
            "bufferView" : 13,
            "componentType" : 5126,
            "count" : 1603,
            "max" : [
                56.8570671081543,
                247.56837463378906,
                31.159631729125977
            ],
            "min" : [
                -58.02903747558594,
                90.7520751953125,
                -45.674129486083984
            ],
            "type" : "VEC3"
        },
        {
            "bufferView" : 14,
            "componentType" : 5126,
            "count" : 1603,
            "type" : "VEC3"
        },
        {
            "bufferView" : 15,
            "componentType" : 5126,
            "count" : 1603,
            "type" : "VEC2"
        },
        {
            "bufferView" : 16,
            "componentType" : 5121,
            "count" : 1603,
            "type" : "VEC4"
        },
        {
            "bufferView" : 17,
            "componentType" : 5126,
            "count" : 1603,
            "type" : "VEC4"
        },
        {
            "bufferView" : 18,
            "componentType" : 5123,
            "count" : 2694,
            "type" : "SCALAR"
        },
        {
            "bufferView" : 19,
            "componentType" : 5126,
            "count" : 1454,
            "max" : [
                41.09043884277344,
                255.22061157226562,
                51.33146667480469
            ],
            "min" : [
                -42.957820892333984,
                182.66098022460938,
                -21.94038200378418
            ],
            "type" : "VEC3"
        },
        {
            "bufferView" : 20,
            "componentType" : 5126,
            "count" : 1454,
            "type" : "VEC3"
        },
        {
            "bufferView" : 21,
            "componentType" : 5126,
            "count" : 1454,
            "type" : "VEC2"
        },
        {
            "bufferView" : 22,
            "componentType" : 5121,
            "count" : 1454,
            "type" : "VEC4"
        },
        {
            "bufferView" : 23,
            "componentType" : 5126,
            "count" : 1454,
            "type" : "VEC4"
        },
        {
            "bufferView" : 24,
            "componentType" : 5123,
            "count" : 3288,
            "type" : "SCALAR"
        },
        {
            "bufferView" : 25,
            "componentType" : 5126,
            "count" : 1131,
            "max" : [
                24.809892654418945,
                250.88690185546875,
                90.77017974853516
            ],
            "min" : [
                -26.586524963378906,
                224.8863525390625,
                39.373756408691406
            ],
            "type" : "VEC3"
        },
        {
            "bufferView" : 26,
            "componentType" : 5126,
            "count" : 1131,
            "type" : "VEC3"
        },
        {
            "bufferView" : 27,
            "componentType" : 5126,
            "count" : 1131,
            "type" : "VEC2"
        },
        {
            "bufferView" : 28,
            "componentType" : 5121,
            "count" : 1131,
            "type" : "VEC4"
        },
        {
            "bufferView" : 29,
            "componentType" : 5126,
            "count" : 1131,
            "type" : "VEC4"
        },
        {
            "bufferView" : 30,
            "componentType" : 5123,
            "count" : 2220,
            "type" : "SCALAR"
        },
        {
            "bufferView" : 31,
            "componentType" : 5126,
            "count" : 522,
            "max" : [
                12.7166166305542,
                251.45689392089844,
                115.16641235351562
            ],
            "min" : [
                -14.493250846862793,
                224.24700927734375,
                66.7933120727539
            ],
            "type" : "VEC3"
        },
        {
            "bufferView" : 32,
            "componentType" : 5126,
            "count" : 522,
            "type" : "VEC3"
        },
        {
            "bufferView" : 33,
            "componentType" : 5126,
            "count" : 522,
            "type" : "VEC2"
        },
        {
            "bufferView" : 34,
            "componentType" : 5121,
            "count" : 522,
            "type" : "VEC4"
        },
        {
            "bufferView" : 35,
            "componentType" : 5126,
            "count" : 522,
            "type" : "VEC4"
        },
        {
            "bufferView" : 36,
            "componentType" : 5123,
            "count" : 1074,
            "type" : "SCALAR"
        }
    ],
    "bufferViews" : [
        {
            "buffer" : 0,
            "byteLength" : 20508,
            "byteOffset" : 0
        },
        {
            "buffer" : 0,
            "byteLength" : 20508,
            "byteOffset" : 20508
        },
        {
            "buffer" : 0,
            "byteLength" : 13672,
            "byteOffset" : 41016
        },
        {
            "buffer" : 0,
            "byteLength" : 6836,
            "byteOffset" : 54688
        },
        {
            "buffer" : 0,
            "byteLength" : 27344,
            "byteOffset" : 61524
        },
        {
            "buffer" : 0,
            "byteLength" : 8304,
            "byteOffset" : 88868
        },
        {
            "buffer" : 0,
            "byteLength" : 384,
            "byteOffset" : 97172
        },
        {
            "buffer" : 0,
            "byteLength" : 29208,
            "byteOffset" : 97556
        },
        {
            "buffer" : 0,
            "byteLength" : 29208,
            "byteOffset" : 126764
        },
        {
            "buffer" : 0,
            "byteLength" : 19472,
            "byteOffset" : 155972
        },
        {
            "buffer" : 0,
            "byteLength" : 9736,
            "byteOffset" : 175444
        },
        {
            "buffer" : 0,
            "byteLength" : 38944,
            "byteOffset" : 185180
        },
        {
            "buffer" : 0,
            "byteLength" : 11004,
            "byteOffset" : 224124
        },
        {
            "buffer" : 0,
            "byteLength" : 19236,
            "byteOffset" : 235128
        },
        {
            "buffer" : 0,
            "byteLength" : 19236,
            "byteOffset" : 254364
        },
        {
            "buffer" : 0,
            "byteLength" : 12824,
            "byteOffset" : 273600
        },
        {
            "buffer" : 0,
            "byteLength" : 6412,
            "byteOffset" : 286424
        },
        {
            "buffer" : 0,
            "byteLength" : 25648,
            "byteOffset" : 292836
        },
        {
            "buffer" : 0,
            "byteLength" : 5388,
            "byteOffset" : 318484
        },
        {
            "buffer" : 0,
            "byteLength" : 17448,
            "byteOffset" : 323872
        },
        {
            "buffer" : 0,
            "byteLength" : 17448,
            "byteOffset" : 341320
        },
        {
            "buffer" : 0,
            "byteLength" : 11632,
            "byteOffset" : 358768
        },
        {
            "buffer" : 0,
            "byteLength" : 5816,
            "byteOffset" : 370400
        },
        {
            "buffer" : 0,
            "byteLength" : 23264,
            "byteOffset" : 376216
        },
        {
            "buffer" : 0,
            "byteLength" : 6576,
            "byteOffset" : 399480
        },
        {
            "buffer" : 0,
            "byteLength" : 13572,
            "byteOffset" : 406056
        },
        {
            "buffer" : 0,
            "byteLength" : 13572,
            "byteOffset" : 419628
        },
        {
            "buffer" : 0,
            "byteLength" : 9048,
            "byteOffset" : 433200
        },
        {
            "buffer" : 0,
            "byteLength" : 4524,
            "byteOffset" : 442248
        },
        {
            "buffer" : 0,
            "byteLength" : 18096,
            "byteOffset" : 446772
        },
        {
            "buffer" : 0,
            "byteLength" : 4440,
            "byteOffset" : 464868
        },
        {
            "buffer" : 0,
            "byteLength" : 6264,
            "byteOffset" : 469308
        },
        {
            "buffer" : 0,
            "byteLength" : 6264,
            "byteOffset" : 475572
        },
        {
            "buffer" : 0,
            "byteLength" : 4176,
            "byteOffset" : 481836
        },
        {
            "buffer" : 0,
            "byteLength" : 2088,
            "byteOffset" : 486012
        },
        {
            "buffer" : 0,
            "byteLength" : 8352,
            "byteOffset" : 488100
        },
        {
            "buffer" : 0,
            "byteLength" : 2148,
            "byteOffset" : 496452
        }
    ],
    "buffers" : [
        {
            "byteLength" : 498600,
            "uri" : "data:application/octet-stream;base64,"
        }
    ]
}
